<?xml version="1.0" standalone="no"?>
<!DOCTYPE svg PUBLIC "-//W3C//DTD SVG 20010904//EN"
 "http://www.w3.org/TR/2001/REC-SVG-20010904/DTD/svg10.dtd">
<svg version="1.0" xmlns="http://www.w3.org/2000/svg"
 width="1280.000000pt" height="1280.000000pt" viewBox="0 0 1280.000000 1280.000000"
 preserveAspectRatio="xMidYMid meet">
<metadata>
Created by potrace 1.15, written by Peter Selinger 2001-2017
</metadata>
<g transform="translate(0.000000,1280.000000) scale(0.100000,-0.100000)"
fill="#000000" stroke="none">
<path d="M740 12050 c-20 -28 -20 -71 -20 -5668 0 -4502 3 -5642 13 -5649 11
-7 10007 -12 10939 -5 377 2 378 3 389 24 9 17 11 1366 9 5628 -2 3083 -4
5621 -5 5640 -2 31 -6 35 -36 42 -19 4 -2562 9 -5652 11 l-5618 4 -19 -27z
m10502 -890 c6 -15 7 -262 3 -635 -3 -335 -7 -2474 -9 -4751 -2 -2278 -6
-4147 -10 -4153 -5 -8 -1295 -11 -4847 -11 l-4839 0 0 4758 0 4758 28 25 27
24 1520 5 c836 3 3004 5 4819 5 l3299 0 9 -25z"/>
</g>
</svg>
