<?xml version="1.0" standalone="no"?>
<!DOCTYPE svg PUBLIC "-//W3C//DTD SVG 20010904//EN"
 "http://www.w3.org/TR/2001/REC-SVG-20010904/DTD/svg10.dtd">
<svg version="1.0" xmlns="http://www.w3.org/2000/svg"
 width="1280.000000pt" height="1280.000000pt" viewBox="0 0 1280.000000 1280.000000"
 preserveAspectRatio="xMidYMid meet">
<g transform="translate(0.000000,1280.000000) scale(0.100000,-0.100000)"
fill="#000000" stroke="none">
<path d="M6130 12790 c-41 -4 -156 -13 -255 -20 -820 -53 -1590 -268 -2355
-655 -1686 -855 -2891 -2388 -3336 -4245 -73 -303 -131 -678 -154 -990 -6 -80
-15 -192 -20 -250 -6 -58 -10 -163 -10 -235 0 -126 4 -196 36 -569 99 -1166
532 -2292 1247 -3244 686 -914 1614 -1640 2657 -2077 610 -256 1306 -426 1945
-475 77 -6 192 -15 257 -20 207 -18 295 -15 785 26 1073 88 2134 458 3040
1061 338 224 607 446 934 773 280 280 470 498 671 770 542 736 905 1554 1102
2485 57 271 81 436 96 670 6 94 15 226 20 295 13 159 13 436 0 610 -5 74 -14
212 -20 305 -62 949 -445 2044 -1025 2925 -394 600 -905 1143 -1490 1585 -161
121 -454 316 -640 425 -182 106 -597 312 -799 395 -588 243 -1224 390 -1876
435 -85 6 -205 15 -266 20 -126 11 -432 11 -544 0z m261 -121 c28 -31 46 -215
54 -564 4 -132 8 -249 10 -261 4 -20 13 -22 127 -28 199 -11 487 -35 577 -47
76 -10 86 -10 97 5 14 20 64 275 64 329 0 31 -4 38 -25 43 -41 10 -95 -4 -106
-29 -5 -12 -18 -67 -28 -122 l-17 -100 -129 2 c-131 3 -418 28 -436 38 -16 11
-4 464 19 685 l7 65 85 -2 c483 -14 1360 -157 1360 -222 0 -6 -45 -180 -99
-388 -55 -208 -102 -392 -106 -409 l-6 -32 113 -40 c211 -74 640 -212 663
-212 24 0 55 60 125 236 30 75 31 79 13 92 -29 22 -83 43 -94 36 -6 -3 -32
-52 -58 -107 -26 -56 -55 -108 -65 -116 -16 -13 -35 -9 -171 37 -206 69 -338
121 -351 139 -9 11 -8 29 2 76 32 134 164 546 196 611 19 37 21 38 59 32 148
-24 1169 -472 1262 -554 9 -8 17 -24 17 -36 0 -11 -70 -143 -155 -292 -159
-277 -225 -408 -225 -442 0 -13 21 -32 63 -57 100 -61 241 -160 412 -290 88
-66 165 -124 172 -128 13 -8 207 226 224 270 10 27 7 36 -24 71 -40 44 -69 26
-191 -120 -27 -32 -52 -58 -57 -58 -12 0 -443 319 -451 334 -10 17 360 611
394 632 19 12 286 -166 507 -340 298 -233 621 -523 621 -558 0 -26 -63 -98
-316 -362 -131 -137 -240 -253 -242 -257 -2 -5 63 -89 145 -186 82 -98 177
-214 212 -258 90 -112 152 -175 174 -175 36 0 241 151 264 195 11 19 9 28 -10
56 -13 19 -29 35 -37 37 -9 1 -53 -22 -99 -53 -46 -30 -94 -58 -106 -61 -34
-8 -63 15 -167 134 -51 59 -121 137 -156 173 l-63 67 14 34 c19 45 94 125 325
345 140 134 196 182 207 176 40 -23 285 -313 455 -538 86 -115 304 -438 379
-563 38 -63 42 -75 30 -87 -8 -8 -176 -105 -374 -215 -198 -111 -362 -204
-364 -206 -3 -2 63 -142 146 -312 83 -169 158 -328 168 -354 23 -63 46 -82 88
-75 49 8 241 84 271 108 32 25 35 76 7 110 l-18 23 -89 -34 c-48 -18 -104 -34
-123 -34 -29 -1 -39 5 -62 39 -34 49 -182 343 -204 404 -15 42 -14 45 5 67 12
12 96 60 188 107 254 130 441 209 470 200 39 -14 306 -641 423 -993 60 -182
87 -296 76 -324 -9 -24 -50 -39 -306 -112 -273 -78 -403 -120 -455 -146 -35
-18 -38 -22 -33 -51 3 -18 21 -108 40 -202 19 -93 49 -247 67 -342 18 -95 38
-180 45 -190 17 -23 140 -30 241 -14 87 13 117 41 112 105 l-3 41 -140 0 -140
0 -32 175 c-41 219 -52 360 -31 378 21 17 242 73 458 117 190 38 232 42 248
23 50 -63 172 -990 172 -1310 l0 -128 -417 0 c-230 0 -423 -4 -430 -8 -15 -10
-71 -552 -76 -742 l-2 -95 169 -19 c191 -21 185 -22 206 53 14 51 0 60 -126
82 -74 13 -113 25 -122 37 -10 13 -12 43 -7 122 10 170 25 373 31 398 l5 24
347 -4 c285 -3 352 -6 377 -18 l30 -16 -2 -129 c-4 -305 -152 -1208 -206
-1263 -23 -23 -115 -7 -480 84 -165 41 -312 74 -327 74 -15 0 -33 -6 -40 -14
-6 -8 -47 -118 -90 -243 -43 -125 -97 -282 -121 -349 -48 -137 -47 -163 4
-194 53 -33 217 -93 255 -94 32 -1 39 3 56 36 19 35 20 38 3 56 -10 10 -62 38
-117 61 -54 24 -104 48 -109 55 -8 9 7 62 52 187 90 245 138 339 176 339 43 0
431 -109 543 -151 96 -37 128 -62 128 -98 0 -87 -246 -688 -426 -1041 -88
-173 -131 -240 -155 -240 -26 0 -81 28 -374 195 -317 180 -374 210 -384 199
-33 -37 -441 -646 -441 -657 0 -23 43 -70 124 -136 83 -68 130 -94 155 -86 27
8 74 62 68 78 -3 8 -42 40 -87 71 -127 90 -127 98 -1 284 138 200 183 257 211
260 44 5 500 -259 602 -348 l41 -36 -18 -34 c-85 -166 -648 -895 -813 -1054
-31 -29 -45 -36 -62 -31 -37 12 -192 149 -414 366 -118 115 -217 209 -221 209
-4 0 -50 -40 -103 -89 -119 -110 -241 -214 -394 -338 l-118 -94 16 -32 c34
-67 177 -277 188 -277 14 0 101 53 109 67 3 5 -21 42 -54 83 -73 90 -92 125
-84 150 7 22 117 123 293 269 88 73 127 99 138 93 17 -9 265 -280 395 -430 57
-66 89 -111 89 -126 0 -90 -1023 -846 -1146 -846 -29 0 -18 -17 -244 374 -143
247 -190 322 -206 324 -12 2 -165 -62 -341 -141 -176 -80 -338 -151 -361 -158
-33 -10 -42 -17 -42 -35 0 -46 106 -324 129 -338 16 -11 62 2 91 24 l25 19
-40 116 c-30 88 -37 119 -29 133 12 20 345 191 423 217 40 13 59 15 76 7 15
-7 56 -72 123 -199 200 -373 225 -442 172 -485 -112 -90 -1054 -464 -1223
-485 -38 -5 -51 -2 -68 13 -34 31 -43 57 -118 328 -84 303 -114 394 -141 420
-19 19 -22 19 -160 2 -145 -17 -638 -100 -646 -108 -7 -7 36 -362 45 -371 13
-13 101 14 111 33 9 17 4 85 -16 207 -6 38 -4 43 17 52 22 9 410 77 502 89 36
4 38 3 59 -44 12 -27 54 -183 95 -348 81 -330 81 -315 8 -347 -143 -62 -848
-152 -1209 -153 l-210 -1 3 416 c2 336 0 417 -11 426 -15 12 -438 52 -644 60
-133 6 -142 5 -161 -14 -26 -26 -47 -138 -48 -253 0 -83 0 -85 29 -98 21 -11
34 -12 52 -3 31 14 39 36 61 163 l18 103 125 -2 c114 -2 268 -14 378 -29 71
-10 72 -14 71 -197 -1 -231 -22 -554 -37 -569 -39 -39 -889 70 -1257 162 -133
34 -165 50 -165 83 0 34 84 382 141 580 28 98 49 188 47 200 -3 19 -18 26
-103 50 -55 16 -223 74 -374 129 -150 54 -281 98 -290 96 -9 -2 -28 -26 -43
-53 -40 -72 -98 -221 -98 -249 0 -47 81 -86 109 -52 7 8 20 43 30 78 26 89 41
118 65 124 44 11 511 -137 530 -168 13 -21 -3 -85 -100 -426 -79 -275 -86
-292 -116 -292 -48 0 -457 152 -718 267 -263 116 -542 266 -585 313 -19 20
-18 22 7 73 14 29 96 176 182 327 86 151 162 292 168 313 11 36 10 40 -18 66
-51 50 -595 431 -614 431 -25 0 -70 -47 -157 -164 -80 -107 -87 -132 -41 -154
39 -19 74 2 149 91 34 39 67 75 74 79 9 6 409 -264 454 -307 19 -18 12 -34
-97 -217 -179 -299 -274 -448 -287 -448 -13 0 -270 173 -390 263 -381 287
-725 593 -725 645 0 35 55 98 332 378 131 133 238 245 238 248 0 4 -82 100
-182 214 -100 114 -220 255 -267 314 l-84 107 -26 -15 c-14 -9 -78 -55 -141
-102 -78 -59 -116 -94 -118 -110 -4 -29 35 -92 56 -92 9 0 61 32 114 70 53 39
103 70 111 70 20 0 312 -341 344 -403 8 -15 11 -37 8 -48 -21 -66 -490 -459
-546 -459 -32 0 -63 26 -146 123 -296 344 -727 960 -707 1010 7 20 73 62 364
232 238 139 350 212 350 226 0 13 -32 83 -157 344 -66 138 -128 272 -138 298
-28 75 -47 83 -144 58 -150 -39 -241 -85 -241 -121 0 -31 22 -69 42 -76 11 -3
66 11 127 32 59 21 115 35 124 31 20 -8 138 -250 192 -395 29 -78 36 -108 29
-120 -22 -34 -590 -342 -632 -342 -26 0 -51 40 -133 220 -187 412 -414 1021
-407 1094 3 28 9 34 78 63 41 17 199 65 350 107 151 41 299 83 329 92 l53 18
-6 45 c-18 139 -137 747 -149 758 -10 11 -28 11 -83 3 -38 -5 -106 -10 -152
-10 -98 0 -122 -15 -122 -79 0 -79 9 -82 175 -57 56 9 94 10 101 5 12 -10 38
-133 74 -354 23 -142 25 -198 7 -214 -27 -22 -612 -151 -686 -151 -28 0 -32 4
-45 53 -48 166 -124 750 -150 1157 -14 197 -13 216 2 228 12 9 115 12 433 12
l418 0 5 33 c3 17 14 138 26 267 12 129 30 302 40 384 11 82 19 151 17 152 -6
7 -247 34 -297 34 -63 0 -75 -6 -88 -41 -21 -54 16 -77 142 -93 132 -16 129
-7 96 -370 -13 -145 -24 -223 -33 -228 -6 -4 -48 -6 -92 -3 -44 2 -165 7 -270
10 -217 7 -363 21 -382 37 -17 14 -17 89 2 279 38 373 132 962 176 1097 20 61
46 58 511 -59 175 -43 328 -79 340 -79 23 0 59 92 258 668 l25 74 -35 29 c-44
37 -230 129 -266 132 -21 2 -33 -6 -51 -33 -35 -50 -27 -71 32 -93 156 -57
185 -70 185 -84 0 -22 -159 -484 -176 -510 -19 -30 -48 -29 -160 1 -168 44
-579 168 -591 178 -28 23 215 632 412 1033 121 246 153 295 193 295 18 0 129
-57 303 -156 296 -169 399 -224 416 -224 6 0 29 21 51 48 62 74 412 593 412
612 0 28 -156 162 -239 204 -32 17 -35 17 -60 -2 -48 -35 -40 -54 58 -149 50
-47 91 -92 91 -98 0 -28 -294 -432 -321 -440 -30 -10 -161 64 -429 240 -185
122 -196 133 -182 173 31 90 288 448 516 722 130 156 356 390 376 390 7 0 141
-127 299 -282 158 -156 299 -289 314 -297 25 -13 28 -12 47 12 19 24 222 201
472 411 l118 99 -47 66 c-77 109 -144 191 -163 201 -28 15 -61 12 -82 -7 -35
-31 -23 -64 66 -182 30 -41 53 -78 50 -82 -15 -24 -415 -369 -428 -369 -14 0
-499 510 -519 546 -11 19 -16 15 198 198 278 238 694 538 880 635 69 36 86 38
107 14 15 -18 373 -615 403 -673 8 -16 19 -30 24 -30 23 0 736 352 739 364 8
35 -106 312 -132 322 -23 9 -83 -4 -100 -21 -17 -17 -15 -25 33 -153 49 -131
54 -122 -111 -202 -161 -77 -310 -140 -331 -140 -7 0 -23 10 -35 23 -52 56
-332 568 -332 608 0 60 380 239 930 439 347 126 395 128 441 25 11 -25 47
-149 80 -277 81 -313 105 -393 132 -424 l23 -26 383 67 c211 36 390 69 398 72
12 5 13 20 8 82 -15 184 -35 285 -59 294 -18 7 -65 -4 -74 -17 -4 -6 -9 -72
-12 -146 l-5 -135 -90 -17 c-49 -9 -165 -30 -257 -47 -91 -17 -171 -31 -178
-31 -40 0 -190 542 -190 690 0 45 3 51 30 65 118 61 1043 174 1295 157 52 -3
74 -9 86 -23z"/>
<path d="M6030 12499 c-288 -24 -750 -85 -781 -104 -26 -16 30 -325 66 -365
25 -27 120 -29 133 -2 6 10 4 66 -5 146 -9 87 -11 132 -4 139 6 6 127 21 271
35 297 28 288 30 309 -54 29 -116 55 -634 32 -648 -5 -4 -108 -20 -228 -37
-280 -39 -436 -68 -706 -130 -120 -28 -225 -49 -234 -47 -11 2 -43 96 -113
328 -113 373 -133 430 -160 455 -19 17 -23 17 -83 1 -117 -33 -597 -225 -739
-297 -32 -16 -58 -36 -58 -44 0 -36 161 -345 179 -345 22 0 106 67 109 86 2
11 -15 63 -38 114 -22 51 -40 102 -40 111 0 10 11 26 25 35 64 42 481 182 510
170 22 -8 46 -63 123 -276 83 -231 112 -323 112 -356 0 -34 -56 -67 -230 -139
-78 -32 -259 -116 -403 -187 -277 -137 -414 -198 -445 -198 -22 0 -36 21 -273
392 -89 139 -168 261 -177 271 -14 16 -18 16 -61 -9 -146 -84 -538 -368 -655
-476 -70 -64 -72 -55 38 -186 89 -106 154 -172 171 -172 19 0 85 77 85 99 0
10 -31 61 -70 112 -38 52 -70 101 -70 110 0 22 423 329 454 329 17 0 53 -40
132 -150 103 -145 284 -421 284 -435 0 -7 -69 -65 -152 -128 -204 -153 -464
-374 -617 -524 l-124 -123 -45 26 c-48 28 -173 137 -447 388 -93 86 -173 156
-176 156 -21 0 -479 -580 -548 -694 -39 -65 -39 -65 54 -132 99 -70 198 -124
228 -124 36 0 77 43 77 80 0 30 -37 68 -123 128 -81 55 -79 65 46 232 118 157
222 270 249 270 48 0 483 -376 524 -453 17 -32 19 -28 -61 -132 -202 -261
-336 -451 -483 -686 -51 -80 -101 -154 -111 -163 -22 -20 -14 -24 -462 207
-157 81 -292 147 -301 147 -16 0 -203 -374 -266 -535 -59 -148 -94 -268 -90
-306 3 -33 7 -35 85 -66 45 -18 117 -43 158 -55 69 -20 79 -21 102 -8 15 8 35
32 46 53 l20 39 -24 22 c-13 12 -53 35 -89 51 -92 42 -140 73 -140 91 0 34
180 465 207 496 18 20 27 17 225 -70 270 -120 421 -204 433 -241 4 -14 -31
-114 -106 -303 -61 -156 -139 -366 -171 -468 -70 -219 -104 -310 -122 -335
-17 -23 -26 -22 -456 75 -168 38 -320 71 -337 75 -43 9 -43 8 -87 -256 -57
-343 -78 -508 -80 -604 l-1 -90 181 0 c204 0 214 3 214 64 0 60 -14 70 -105
77 -135 11 -162 38 -151 154 8 79 65 406 77 438 13 33 52 29 336 -28 364 -73
373 -76 373 -125 0 -11 -11 -128 -25 -261 -14 -133 -29 -371 -35 -530 -10
-318 -14 -350 -41 -365 -23 -12 -274 -33 -603 -50 -193 -11 -239 -16 -244 -28
-12 -31 66 -686 100 -839 14 -66 32 -77 107 -68 69 8 182 32 250 51 41 13 51
20 51 38 0 44 -21 98 -41 106 -11 4 -59 1 -107 -5 -125 -18 -150 -17 -161 5
-14 25 -51 312 -58 452 -5 104 -4 116 11 122 41 16 705 62 717 50 5 -5 16 -72
24 -148 18 -167 55 -396 97 -595 72 -348 76 -403 31 -452 -31 -35 -83 -55
-354 -138 -278 -86 -354 -117 -364 -150 -3 -11 1 -46 9 -79 31 -122 211 -582
282 -723 17 -34 30 -48 45 -48 12 0 77 27 144 60 126 62 175 102 175 143 0 30
-36 87 -55 87 -8 0 -53 -16 -101 -36 -58 -24 -98 -34 -122 -32 -35 3 -39 7
-70 68 -46 93 -144 358 -149 406 -5 37 -2 44 20 59 62 40 495 193 594 210 40
6 43 5 67 -32 15 -22 60 -118 102 -214 103 -236 202 -441 313 -643 50 -93 91
-176 89 -185 -2 -9 -102 -77 -223 -152 -354 -220 -460 -292 -463 -314 -5 -35
185 -317 397 -588 64 -82 121 -155 127 -163 6 -8 14 -14 18 -14 32 0 246 191
272 243 14 25 14 31 0 53 -9 13 -27 31 -40 39 -30 20 -52 12 -151 -55 -41 -27
-83 -50 -94 -50 -23 0 -75 57 -186 205 -118 158 -165 230 -165 252 0 15 75 70
295 216 162 109 299 197 304 197 5 0 60 -69 124 -153 138 -184 271 -345 450
-544 173 -193 191 -217 183 -246 -6 -26 -187 -226 -411 -456 l-150 -153 50
-45 c222 -199 324 -286 414 -352 57 -42 145 -106 195 -143 50 -38 96 -68 101
-68 11 0 16 8 132 189 86 134 91 158 36 196 -21 14 -45 25 -53 25 -20 0 -51
-34 -124 -133 -41 -56 -62 -77 -76 -75 -10 2 -111 79 -224 171 -160 131 -206
174 -206 192 0 13 17 49 38 80 58 86 413 485 431 485 9 0 68 -44 131 -96 211
-175 396 -308 605 -434 114 -69 219 -135 234 -147 l26 -22 -179 -356 c-144
-285 -180 -364 -180 -398 l-1 -42 80 -39 c98 -47 399 -178 594 -257 104 -42
148 -55 157 -48 25 21 124 312 124 366 0 17 -8 24 -37 32 -84 24 -97 14 -142
-103 -44 -114 -56 -129 -95 -123 -65 11 -435 193 -480 237 -17 17 -18 23 -7
60 26 87 243 495 306 575 19 24 29 22 285 -83 107 -43 254 -100 325 -125 121
-42 189 -64 417 -131 117 -35 120 -39 102 -118 -62 -265 -135 -606 -142 -666
-12 -105 -10 -107 179 -141 213 -39 344 -53 545 -58 l202 -6 7 167 c9 199 5
216 -53 216 -77 0 -112 -55 -112 -178 0 -85 -10 -102 -61 -102 -61 0 -426 58
-464 74 -50 21 -59 46 -52 150 6 84 73 438 98 514 23 71 44 74 302 42 194 -24
439 -45 717 -61 113 -6 210 -15 216 -20 7 -6 13 -119 17 -347 6 -308 20 -478
40 -498 17 -18 730 70 870 107 l37 10 0 55 c0 63 -34 239 -56 292 l-14 35 -56
-6 c-31 -3 -61 -10 -67 -16 -7 -7 -6 -54 3 -146 8 -81 9 -139 4 -144 -22 -21
-546 -51 -572 -34 -17 13 -30 132 -47 443 -11 206 -11 268 -2 277 7 6 66 17
132 23 254 24 502 67 870 150 133 31 173 36 182 27 7 -7 60 -172 118 -367 58
-195 111 -370 116 -387 12 -39 26 -41 114 -17 72 18 349 122 575 214 239 98
223 89 216 124 -9 41 -100 221 -142 279 -38 52 -54 56 -101 27 -42 -25 -42
-50 -3 -155 41 -108 40 -138 -4 -159 -57 -27 -358 -143 -413 -159 -49 -15 -53
-15 -77 4 -51 40 -226 527 -226 632 0 32 35 53 196 117 87 35 318 144 513 242
194 98 359 178 366 178 7 0 68 -89 135 -197 202 -326 324 -513 336 -513 14 0
176 111 364 249 270 199 360 273 367 299 9 37 -15 76 -126 205 -85 98 -105
116 -120 108 -22 -12 -101 -97 -101 -109 0 -5 38 -50 85 -100 47 -49 85 -95
85 -100 0 -28 -439 -352 -476 -352 -7 0 -50 51 -95 113 -98 135 -319 464 -319
475 0 17 31 44 195 172 215 168 379 307 568 482 82 76 154 138 160 138 7 0
129 -108 272 -241 259 -239 333 -299 366 -299 10 0 32 14 49 31 96 96 510 643
510 674 0 12 -17 37 -37 57 -42 40 -170 127 -226 154 -36 17 -37 17 -74 -8
-21 -14 -44 -37 -52 -51 -18 -33 -10 -44 74 -99 124 -84 131 -107 64 -204 -84
-119 -282 -364 -296 -364 -8 0 -111 84 -231 188 -119 103 -241 207 -269 231
-29 24 -53 48 -53 53 0 5 62 87 137 183 182 232 286 378 418 591 61 97 119
181 131 186 28 13 85 -11 456 -199 168 -86 313 -153 320 -150 35 13 353 751
360 836 3 31 -1 36 -42 57 -49 26 -203 78 -262 89 -34 6 -41 4 -68 -25 -35
-38 -47 -74 -30 -94 6 -8 50 -29 98 -46 115 -41 132 -53 132 -91 0 -70 -197
-490 -233 -497 -21 -4 -167 59 -434 189 -153 74 -203 103 -203 117 0 9 30 92
66 182 110 275 179 465 249 690 37 118 72 221 78 229 17 20 95 9 453 -64 174
-36 333 -65 354 -65 l38 0 21 88 c28 123 77 431 96 602 8 80 18 164 21 187 6
49 15 45 -141 68 -133 20 -229 20 -245 0 -17 -20 -17 -120 0 -140 8 -10 31
-15 69 -15 102 0 161 -11 172 -32 19 -36 -57 -563 -83 -579 -7 -5 -31 -6 -53
-3 -117 17 -545 121 -629 153 -33 13 -33 -14 3 316 18 169 37 507 44 775 l2
95 130 12 c175 15 526 33 653 33 l102 0 0 30 c0 49 -59 550 -85 729 -14 90
-30 170 -37 178 -17 20 -102 12 -236 -22 -159 -40 -156 -38 -148 -88 4 -23 14
-52 22 -65 14 -22 18 -22 132 -16 138 8 142 5 166 -91 20 -82 50 -377 42 -419
-13 -71 -50 -82 -346 -101 -306 -19 -380 -21 -389 -6 -4 6 -18 94 -30 194 -32
260 -73 496 -125 720 -25 107 -46 210 -46 227 0 47 31 60 596 239 88 29 166
57 172 63 20 20 14 63 -24 181 -55 170 -218 578 -280 699 l-14 28 -143 -71
c-164 -82 -207 -111 -207 -141 0 -28 47 -108 64 -108 7 0 49 16 93 35 102 44
144 46 172 7 37 -53 141 -295 177 -415 8 -26 12 -56 9 -67 -4 -11 -38 -32 -93
-55 -118 -50 -389 -142 -487 -165 -101 -25 -113 -18 -150 82 -68 180 -148 355
-296 647 -88 173 -159 320 -157 327 3 16 321 221 550 356 86 51 157 98 157
105 1 7 -48 86 -108 175 -183 274 -413 571 -452 583 -26 9 -71 -20 -212 -138
l-117 -99 51 -59 c28 -32 55 -62 61 -65 10 -6 10 -6 120 79 99 75 110 75 185
-10 79 -90 193 -236 231 -297 31 -48 31 -49 14 -79 -9 -16 -66 -66 -127 -112
-136 -102 -422 -285 -445 -285 -22 0 -55 37 -140 155 -130 182 -256 328 -497
577 -84 86 -153 163 -153 171 0 12 188 218 518 568 34 37 62 71 62 77 0 21
-720 592 -746 592 -13 -1 -139 -163 -185 -239 -49 -80 -49 -102 -4 -137 51
-39 72 -28 166 81 45 52 89 95 98 95 23 0 445 -348 449 -369 2 -12 -82 -114
-233 -284 -130 -147 -238 -267 -241 -267 -4 0 -95 66 -203 146 -174 130 -561
393 -730 497 -33 20 -61 43 -61 50 0 8 90 177 199 378 154 281 197 367 188
376 -41 40 -525 256 -778 347 -98 36 -108 31 -147 -71 -44 -114 -86 -259 -79
-275 3 -9 32 -21 68 -28 l63 -14 20 28 c11 15 37 68 57 119 21 54 43 93 52 95
19 4 272 -96 382 -151 101 -50 135 -74 135 -95 0 -23 -122 -281 -222 -470 -82
-154 -82 -154 -113 -149 -17 3 -119 40 -226 82 -255 101 -401 153 -622 221
-100 31 -197 65 -216 76 -32 21 -33 23 -28 72 3 28 37 193 75 366 39 173 73
336 77 361 l7 46 -44 11 c-84 21 -620 106 -800 127 -52 6 -60 4 -82 -18 -29
-29 -40 -95 -41 -244 0 -119 12 -140 83 -150 50 -7 57 4 72 108 15 98 28 137
50 149 30 16 125 11 290 -14 152 -24 229 -45 257 -68 18 -14 16 -32 -38 -308
-61 -307 -79 -379 -97 -389 -11 -6 -50 -4 -102 5 -142 22 -251 33 -565 54
-304 21 -452 36 -492 51 -45 17 -47 32 -53 444 l-5 390 -35 1 c-19 1 -82 -2
-140 -7z m850 -994 c640 -64 1204 -222 1766 -494 517 -252 925 -538 1333 -936
766 -748 1274 -1703 1465 -2755 93 -512 100 -1142 20 -1695 -186 -1288 -889
-2468 -1957 -3289 -823 -631 -1810 -989 -2890 -1048 -496 -27 -1065 42 -1594
192 -573 162 -1168 447 -1608 770 -421 309 -1013 924 -1278 1327 -860 1307
-1081 2930 -600 4417 324 1003 950 1876 1808 2521 303 228 630 413 1085 613
502 221 1056 352 1660 392 183 12 600 4 790 -15z"/>
</g>
</svg>
